<svg width="179" height="197" viewBox="0 0 179 197" fill="none" xmlns="http://www.w3.org/2000/svg">
<g id="NodeJs">
<path id="J" d="M83.6036 25.2938C87.2862 23.184 92.0828 23.1745 95.7622 25.2938C114.273 35.7625 132.79 46.2148 151.297 56.6898C154.778 58.6524 157.107 62.5298 157.071 66.5444V129.528C157.097 133.709 154.539 137.679 150.866 139.597C132.416 150.008 113.976 160.432 95.5289 170.843C91.7701 172.994 86.8773 172.828 83.236 170.501C77.7047 167.292 72.1639 164.098 66.6321 160.892C65.5017 160.217 64.2274 159.681 63.4292 158.584C64.1349 157.632 65.3964 157.513 66.4215 157.098C68.7304 156.363 70.851 155.183 72.9721 154.039C73.5085 153.671 74.1633 153.812 74.6775 154.141C79.4074 156.855 84.0955 159.648 88.8413 162.337C89.8537 162.922 90.8789 162.145 91.7442 161.662C109.849 151.421 127.977 141.218 146.079 130.973C146.749 130.65 147.12 129.937 147.066 129.202C147.078 108.425 147.069 87.6444 147.072 66.8674C147.149 66.033 146.666 65.2659 145.912 64.9244C127.526 54.561 109.15 44.1818 90.7673 33.8158C90.4488 33.5966 90.0715 33.4791 89.685 33.4785C89.2985 33.4779 88.9208 33.5944 88.6017 33.8126C70.2189 44.1818 51.8456 54.5706 33.4629 64.9334C32.7117 65.2754 32.2076 66.0298 32.297 66.8674C32.3002 87.6444 32.297 108.425 32.297 129.205C32.2652 129.564 32.3439 129.924 32.5226 130.237C32.7014 130.549 32.9716 130.8 33.2968 130.954C38.2023 133.738 43.1142 136.503 48.0229 139.277C50.7883 140.767 54.1836 141.652 57.2304 140.511C59.9191 139.546 61.8038 136.8 61.7525 133.942C61.7778 113.287 61.7398 92.6278 61.7715 71.9752C61.7043 71.0582 62.5734 70.3006 63.4642 70.3869C65.8212 70.371 68.1814 70.3552 70.5384 70.3933C71.5223 70.371 72.1993 71.3584 72.0777 72.2822C72.0681 93.0688 72.1031 113.856 72.0618 134.642C72.0681 140.182 69.7942 146.21 64.6744 148.921C58.3671 152.191 50.5714 151.497 44.3403 148.362C38.946 145.667 33.7982 142.487 28.4997 139.6C24.8176 137.692 22.2717 133.706 22.2977 129.529V66.5444C22.2591 62.4467 24.6801 58.4988 28.2696 56.5649C46.7164 46.1454 65.16 35.718 83.6036 25.2938Z" fill="#8CC84B"/>
<path id="S" d="M99.6965 68.9229C107.742 68.4046 116.355 68.6159 123.595 72.5828C129.2 75.6227 132.308 82.0027 132.407 88.2356C132.25 89.0763 131.372 89.5401 130.57 89.4824C128.236 89.4792 125.901 89.5141 123.567 89.4665C122.576 89.5046 122.001 88.5908 121.877 87.7146C121.206 84.7324 119.581 81.7788 116.777 80.3404C112.471 78.183 107.48 78.2915 102.785 78.3365C99.358 78.5187 95.6728 78.8157 92.7693 80.8327C90.5403 82.3606 89.8632 85.445 90.6588 87.9291C91.4089 89.7127 93.466 90.2881 95.1491 90.8186C104.845 93.3566 115.119 93.1041 124.63 96.4442C128.567 97.8059 132.419 100.453 133.767 104.579C135.53 110.11 134.757 116.72 130.826 121.16C127.638 124.813 122.995 126.802 118.364 127.882C112.203 129.256 105.81 129.291 99.5532 128.681C93.6701 128.01 87.548 126.463 83.0064 122.451C79.1228 119.076 77.226 113.817 77.4143 108.742C77.4592 107.884 78.3119 107.287 79.1323 107.357C81.483 107.338 83.8337 107.332 86.1844 107.36C87.1233 107.293 87.8194 108.105 87.8675 108.991C88.3012 111.832 89.3681 114.814 91.8437 116.499C96.6212 119.584 102.616 119.373 108.086 119.459C112.618 119.258 117.706 119.197 121.404 116.199C123.356 114.489 123.934 111.628 123.406 109.167C122.835 107.089 120.663 106.12 118.798 105.487C109.227 102.457 98.8375 103.556 89.3586 100.129C85.5105 98.7684 81.7893 96.1949 80.3108 92.238C78.2479 86.6378 79.1932 79.7109 83.5364 75.421C87.7712 71.1539 93.8844 69.5106 99.6965 68.9224V68.9229Z" fill="#8CC84B"/>
<path id="losango" d="M97.4732 2.15235C92.6112 -0.648059 86.2729 -0.635466 81.4067 2.15235C57.0352 15.927 32.6636 29.7059 8.28786 43.4743C3.54468 46.0298 0.345512 51.2466 0.396537 56.6613V139.889C0.362287 145.41 3.72641 150.677 8.59192 153.197C15.5935 157.012 22.3958 161.215 29.5239 164.775C35.9971 168.033 54.2841 178.381 54.2841 178.381L59.7594 180.689C59.7594 180.689 54.457 178.432 54.2841 178.381L57.7427 173.879C57.7192 173.558 63.2181 172.901 63.2181 172.901L65.5782 170.926L62.0654 172.277C62.0654 172.277 65.4242 173.461 65.5782 173.478C65.6014 173.48 67.8283 173.879 67.8283 173.879L69.3788 172.277C69.3788 172.277 66.0993 171.459 66.6762 171.572C66.6762 171.572 38.0443 154.74 34.3901 152.771C27.9037 149.105 21.413 145.452 14.9308 141.773C14.5011 141.569 14.1441 141.238 13.9079 140.825C13.6717 140.412 13.5677 139.936 13.6098 139.462C13.6098 112.003 13.614 84.543 13.6098 57.088C13.4917 55.9813 14.1578 54.9844 15.1503 54.5325C39.4415 40.839 63.7201 27.1112 88.0112 13.4092C88.433 13.1209 88.9319 12.967 89.4427 12.9677C89.9534 12.9685 90.452 13.1239 90.8728 13.4134C115.164 27.1112 139.447 40.8264 163.742 54.5206C164.738 54.9718 165.376 55.9855 165.274 57.088C165.27 84.543 165.283 112.003 165.266 139.458C165.338 140.429 164.848 141.371 163.962 141.798C140.042 155.335 116.088 168.818 92.1638 182.351C91.0203 182.989 89.6657 184.015 88.3279 183.242C82.0567 179.69 75.8618 175.999 69.6117 172.412C68.9323 171.978 67.3582 172.277 67.3582 172.277C64.5553 173.789 61.6577 171.353 58.6067 172.324C57.9349 170.637 54.2841 178.381 54.2841 178.381C55.8373 179.633 58.2658 180.663 59.7594 181.554C67.0692 185.79 73.6118 189.789 80.9209 194.03C85.7326 197.106 92.1981 197.325 97.1649 194.482C121.541 180.725 145.908 166.951 170.288 153.194C175.141 150.659 178.522 145.413 178.488 139.889V56.6613C178.534 51.3564 175.457 46.2327 170.858 43.6394C146.401 29.7975 121.933 15.9858 97.4732 2.15235Z" fill="#8CC84B" fill-opacity="0.12"/>
</g>
</svg>
