<svg width="175" height="173" viewBox="0 0 175 173" fill="none" xmlns="http://www.w3.org/2000/svg">
<g id="ReactJs">
<g id="atom">
<path id="Vector" d="M87.3061 129.464C93.2806 129.464 98.1238 124.597 98.1238 118.594C98.1238 112.59 93.2806 107.723 87.3061 107.723C81.3316 107.723 76.4884 112.59 76.4884 118.594C76.4884 124.597 81.3316 129.464 87.3061 129.464Z" fill="#00D8FF"/>
<g id="Group">
<path id="Vector_2" fill-rule="evenodd" clip-rule="evenodd" d="M87.3063 96.4908C101.831 96.4908 115.323 98.5852 125.497 102.105C137.754 106.345 145.291 112.773 145.291 118.593C145.291 124.659 137.303 131.487 124.141 135.87C114.189 139.183 101.094 140.913 87.3063 140.913C73.1706 140.913 59.7849 139.289 49.7212 135.833C36.9889 131.46 29.32 124.543 29.32 118.593C29.32 112.82 36.5158 106.442 48.601 102.208C58.8124 98.6305 72.6382 96.4908 87.3043 96.4908H87.3063Z" stroke="#00D8FF" stroke-width="4.76572"/>
<path id="Vector_3" fill-rule="evenodd" clip-rule="evenodd" d="M68.1593 107.606C75.4154 94.9623 83.961 84.2629 92.0774 77.165C101.856 68.613 111.163 65.2638 116.18 68.1712C121.408 71.2012 123.305 81.5658 120.507 95.2135C118.394 105.532 113.34 117.795 106.453 129.798C99.3907 142.103 91.3044 152.945 83.2985 159.977C73.168 168.876 63.3739 172.096 58.245 169.124C53.2682 166.242 51.365 156.79 53.7525 144.154C55.7698 133.477 60.8322 120.373 68.1569 107.606L68.1593 107.606Z" stroke="#00D8FF" stroke-width="4.76572"/>
<path id="Vector_4" fill-rule="evenodd" clip-rule="evenodd" d="M68.1774 129.831C60.9008 117.202 55.9466 104.416 53.8787 93.8047C51.3894 81.0199 53.1494 71.2449 58.162 68.3291C63.3855 65.2902 73.2683 68.8154 83.6371 78.0672C91.4767 85.0621 99.5267 95.584 106.435 107.575C113.517 119.868 118.825 132.323 120.89 142.805C123.503 156.069 121.388 166.204 116.264 169.185C111.292 172.078 102.194 169.015 92.4923 160.626C84.2954 153.538 75.5258 142.586 68.1774 129.831V129.831Z" stroke="#00D8FF" stroke-width="4.76572"/>
</g>
</g>
<path id="react" fill-rule="evenodd" clip-rule="evenodd" d="M35.6444 49.9717L22.3851 29.8413C29.0864 29.247 35.1246 24.3677 35.1246 15.4536C35.1246 6.38303 28.7191 0.577881 19.7333 0.577881H0V49.9341H6.11296V30.323H15.908L28.4265 49.9341L35.6444 49.9717ZM19.0018 24.9589H6.11607V6.08902H19.0018C24.8222 6.08902 28.7969 9.93618 28.7969 15.488C28.7969 21.0398 24.8191 24.9651 19.0018 24.9651V24.9589ZM58.3999 50.8568C64.2203 50.8568 69.0042 48.9333 72.5401 45.3832L69.8882 41.755C67.087 44.642 62.966 46.2684 58.9166 46.2684C51.2599 46.2684 46.5444 40.6447 46.1024 33.9137H74.8931V32.5062C74.8931 21.7779 68.5592 13.3392 57.8055 13.3392C47.6431 13.3392 40.2821 21.7029 40.2821 32.0621C40.2821 43.2376 47.8672 50.8287 58.3968 50.8287L58.3999 50.8568ZM69.4493 29.8382H46.1056C46.4012 24.3646 50.1518 17.9214 57.7401 17.9214C65.8419 17.9214 69.3746 24.5085 69.4493 29.8382ZM111.574 49.9686V25.3999C111.574 16.7422 105.318 13.3361 97.8043 13.3361C91.9839 13.3361 87.421 15.2596 83.5926 19.2569L86.1697 23.1041C89.3351 19.7011 92.7994 18.1466 97.0697 18.1466C102.224 18.1466 106.056 20.8834 106.056 25.6939V32.1309C103.183 28.7998 99.1333 27.2453 94.2716 27.2453C88.2333 27.2453 81.8216 31.0205 81.8216 39.012C81.8216 46.7814 88.2271 50.8537 94.2716 50.8537C99.0586 50.8537 103.111 49.1522 106.056 45.8962V49.9623L111.574 49.9686ZM96.2605 46.8595C91.1062 46.8595 87.4956 43.6067 87.4956 39.0902C87.4956 34.5017 91.1062 31.2457 96.2605 31.2457C100.164 31.2457 103.917 32.7251 106.056 35.6871V42.4212C103.92 45.3801 100.164 46.8627 96.2605 46.8627V46.8595ZM138.279 50.8568C144.76 50.8568 148.588 48.192 151.314 44.642L147.632 41.2389C145.276 44.4199 142.257 45.8993 138.606 45.8993C131.021 45.8993 126.312 39.9784 126.312 32.0621C126.312 24.1457 131.024 18.2998 138.606 18.2998C142.288 18.2998 145.307 19.7073 147.632 22.9602L151.314 19.5572C148.591 16.0041 144.76 13.3423 138.279 13.3423C127.675 13.3423 120.532 21.4839 120.532 32.0652C120.532 42.7215 127.675 50.8318 138.279 50.8318V50.8568ZM168.035 50.8568C171.272 50.8568 173.264 49.8935 174.664 48.5642L173.046 44.4199C172.308 45.2331 170.867 45.8993 169.289 45.8993C166.861 45.8993 165.679 43.9757 165.679 41.3109V19.1099H172.9V14.2275H165.679V4.45945H160.154V14.2275H154.262V19.1131H160.154V42.4994C160.154 47.8292 162.806 50.8631 168.035 50.8631V50.8568Z" fill="#00D8FF"/>
</g>
</svg>
