<svg width="158" height="170" viewBox="0 0 158 170" fill="none" xmlns="http://www.w3.org/2000/svg">
<g id="React-Native">
<path id="atomon" d="M156.035 68.7128C156.035 58.579 143.148 48.9751 123.389 43.0195C127.949 23.188 125.923 7.41011 116.993 2.35866C114.935 1.17375 112.529 0.612465 109.901 0.612465V7.56601C111.357 7.56601 112.529 7.84666 113.51 8.37671C117.816 10.8089 119.685 20.0698 118.228 31.9812C117.88 34.9123 117.31 37.9992 116.613 41.1486C110.407 39.6518 103.631 38.4982 96.5066 37.7498C92.2322 31.9812 87.7991 26.7426 83.3342 22.159C93.6567 12.711 103.346 7.53477 109.932 7.53477V0.581299C101.224 0.581299 89.8255 6.69291 78.3001 17.2946C66.7739 6.75525 55.3752 0.706037 46.6678 0.706037V7.65951C53.2221 7.65951 62.9427 12.8045 73.2652 22.1902C68.8322 26.7739 64.3992 31.9812 60.1878 37.7498C53.0316 38.4982 46.2557 39.6518 40.0497 41.1797C39.3212 38.0616 38.783 35.0369 38.4028 32.1371C36.9152 20.2257 38.7512 10.9648 43.0263 8.50144C43.9758 7.94016 45.2106 7.69075 46.6678 7.69075V0.737204C44.0077 0.737204 41.601 1.29849 39.5116 2.4834C30.6137 7.53477 28.6192 23.2815 33.2101 43.0507C13.5152 49.0375 0.691284 58.6104 0.691284 68.7128C0.691284 78.8474 13.5785 88.4513 33.3368 94.4065C28.777 114.238 30.8035 130.016 39.7332 135.067C41.7915 136.252 44.1974 136.813 46.8575 136.813C55.565 136.813 66.9644 130.702 78.4899 120.1C90.0153 130.64 101.415 136.689 110.122 136.689C112.782 136.689 115.188 136.128 117.278 134.943C126.176 129.891 128.171 114.144 123.579 94.3759C143.211 88.42 156.035 78.816 156.035 68.7128ZM114.809 47.915C113.637 51.9377 112.18 56.0842 110.534 60.2315C109.236 57.7374 107.874 55.2426 106.386 52.7479C104.929 50.2536 103.377 47.8215 101.826 45.4516C106.322 46.1064 110.66 46.9172 114.809 47.915ZM100.306 81.1232C97.8363 85.3332 95.3036 89.3243 92.6754 93.0351C87.957 93.4402 83.1764 93.6584 78.3631 93.6584C73.5817 93.6584 68.8003 93.4402 64.1145 93.0657C61.4863 89.355 58.9211 85.3953 56.4514 81.2167C54.0448 77.1322 51.8605 72.9849 49.8653 68.807C51.8287 64.6283 54.0448 60.4497 56.4203 56.3652C58.8899 52.1559 61.4226 48.1644 64.0508 44.4538C68.7692 44.0484 73.5499 43.8302 78.3631 43.8302C83.1445 43.8302 87.9259 44.0484 92.6117 44.4226C95.2399 48.1333 97.8051 52.0932 100.275 56.2718C102.681 60.3563 104.866 64.5035 106.861 68.6822C104.866 72.8601 102.681 77.0387 100.306 81.1232ZM110.534 77.0701C112.196 81.1337 113.654 85.2752 114.904 89.4798C110.755 90.4775 106.386 91.3198 101.858 91.9745C103.409 89.5739 104.961 87.1105 106.418 84.5844C107.874 82.0903 109.236 79.5642 110.534 77.0701ZM78.4261 110.341C75.4814 107.347 72.5367 104.01 69.6238 100.362C72.4736 100.487 75.3865 100.581 78.3313 100.581C81.3078 100.581 84.2526 100.519 87.1343 100.362C84.4163 103.841 81.5093 107.172 78.4261 110.341ZM54.8683 91.9745C50.3722 91.3198 46.0341 90.5089 41.8864 89.5111C43.0575 85.4887 44.5146 81.3414 46.1608 77.1942C47.4593 79.689 48.8209 82.1837 50.3085 84.6778C51.7968 87.1726 53.317 89.6046 54.8683 91.9745ZM78.2682 27.0857C81.213 30.0791 84.1577 33.4156 87.0706 37.0638C84.2207 36.939 81.3078 36.8455 78.3631 36.8455C75.3865 36.8455 72.4418 36.9079 69.5608 37.0638C72.2785 33.5856 75.1853 30.2548 78.2682 27.0857ZM54.8364 45.4516C53.2851 47.8526 51.7338 50.3159 50.2773 52.8413C48.8209 55.3361 47.4593 57.8308 46.1608 60.3249C44.4985 56.2614 43.0403 52.1197 41.7915 47.915C45.9392 46.9484 50.3085 46.1064 54.8364 45.4516ZM26.1807 84.4909C14.9718 79.7824 7.72069 73.6089 7.72069 68.7128C7.72069 63.8174 14.9718 57.6126 26.1807 52.9354C28.9038 51.7815 31.8804 50.7525 34.9519 49.7859C36.7566 55.8974 39.1314 62.2584 42.0761 68.7756C39.1633 75.2614 36.8197 81.5911 35.0467 87.6718C31.9122 86.7047 28.9356 85.6449 26.1807 84.4909ZM43.2161 129.049C38.9098 126.617 37.0413 117.357 38.4984 105.445C38.8468 102.514 39.416 99.4268 40.1127 96.2773C46.3194 97.7743 53.0953 98.9282 60.2196 99.6764C64.494 105.445 68.9271 110.683 73.392 115.267C63.0695 124.715 53.38 129.891 46.7938 129.891C45.3692 129.86 44.1663 129.579 43.2161 129.049ZM118.323 105.289C119.811 117.2 117.975 126.461 113.7 128.925C112.75 129.486 111.516 129.736 110.058 129.736C103.504 129.736 93.7835 124.591 83.461 115.205C87.894 110.621 92.327 105.414 96.5385 99.645C103.695 98.8968 110.471 97.7429 116.676 96.2152C117.405 99.3647 117.975 102.389 118.323 105.289ZM130.514 84.4909C127.791 85.6449 124.814 86.674 121.743 87.6404C119.938 81.529 117.563 75.168 114.618 68.6508C117.532 62.165 119.875 55.8353 121.648 49.7547C124.783 50.7213 127.759 51.7815 130.546 52.9354C141.755 57.6433 149.006 63.8174 149.006 68.7128C148.974 73.6089 141.723 79.8138 130.514 84.4909Z" fill="#61DAFB"/>
<path id="react native" d="M78.3313 82.9634C86.3236 82.9634 92.8022 76.5835 92.8022 68.713C92.8022 60.8431 86.3236 54.4633 78.3313 54.4633C70.3397 54.4633 63.8611 60.8431 63.8611 68.713C63.8611 76.5835 70.3397 82.9634 78.3313 82.9634ZM7.74518 161.349H2.9684V169.45H0.272758V149.424H7.00493C9.2955 149.424 11.0554 149.938 12.2845 150.965C13.5229 151.991 14.1422 153.486 14.1422 155.448C14.1422 156.696 13.7976 157.782 13.1086 158.709C12.4289 159.635 11.4791 160.327 10.2593 160.785L15.0361 169.285V169.45H12.1588L7.74518 161.349ZM2.9684 159.19H7.08876C8.4203 159.19 9.47711 158.85 10.2593 158.172C11.0507 157.493 11.4465 156.585 11.4465 155.448C11.4465 154.211 11.0694 153.262 10.3151 152.601C9.57022 151.941 8.49011 151.606 7.07474 151.597H2.9684V159.19ZM23.7798 169.726C21.731 169.726 20.0642 169.066 18.7793 167.745C17.4942 166.415 16.8518 164.641 16.8518 162.422V161.954C16.8518 160.478 17.1358 159.162 17.7037 158.007C18.2811 156.842 19.0819 155.934 20.1061 155.284C21.1397 154.623 22.2571 154.293 23.4583 154.293C25.4231 154.293 26.9504 154.93 28.0393 156.205C29.129 157.479 29.6735 159.304 29.6735 161.679V162.738H19.4357C19.4729 164.206 19.906 165.393 20.7346 166.301C21.5727 167.199 22.6342 167.649 23.9193 167.649C24.8319 167.649 25.6044 167.465 26.2374 167.099C26.8711 166.732 27.4248 166.246 27.8999 165.641L29.4781 166.851C28.2114 168.767 26.3124 169.726 23.7798 169.726ZM23.4583 156.384C22.4154 156.384 21.5401 156.76 20.8324 157.511C20.1247 158.255 19.6871 159.3 19.5195 160.648H27.0898V160.455C27.0155 159.162 26.6615 158.163 26.0285 157.456C25.3948 156.742 24.5381 156.384 23.4583 156.384ZM42.0068 169.45C41.8574 169.157 41.7363 168.635 41.6436 167.882C40.442 169.111 39.0083 169.726 37.3415 169.726C35.8518 169.726 34.6276 169.313 33.6682 168.488C32.7188 167.653 32.2437 166.599 32.2437 165.324C32.2437 163.775 32.8398 162.573 34.0315 161.721C35.2323 160.858 36.9181 160.427 39.0876 160.427H41.6018V159.259C41.6018 158.369 41.3313 157.663 40.7918 157.14C40.2516 156.608 39.455 156.343 38.4029 156.343C37.481 156.343 36.7086 156.571 36.0848 157.03C35.461 157.488 35.1487 158.043 35.1487 158.695H32.5509C32.5509 157.952 32.8165 157.237 33.3468 156.548C33.887 155.852 34.6135 155.302 35.5261 154.898C36.448 154.495 37.4577 154.293 38.5565 154.293C40.2983 154.293 41.662 154.724 42.649 155.586C43.636 156.439 44.1479 157.617 44.1854 159.121V165.97C44.1854 167.337 44.3624 168.423 44.7165 169.23V169.45H42.0068ZM37.7189 167.511C38.5289 167.511 39.2971 167.305 40.0236 166.892C40.7493 166.479 41.2754 165.943 41.6018 165.283V162.23H39.5761C36.4105 162.23 34.8273 163.142 34.8273 164.966C34.8273 165.764 35.0978 166.388 35.6373 166.837C36.1775 167.286 36.8714 167.511 37.7189 167.511ZM54.2976 167.649C55.2195 167.649 56.0253 167.373 56.7142 166.823C57.4031 166.273 57.7847 165.586 57.8591 164.76H60.3039C60.2572 165.613 59.9591 166.424 59.4097 167.195C58.8602 167.965 58.1246 168.58 57.2027 169.038C56.2901 169.496 55.3222 169.726 54.2976 169.726C52.2401 169.726 50.601 169.052 49.381 167.704C48.171 166.346 47.5656 164.494 47.5656 162.147V161.721C47.5656 160.272 47.8354 158.983 48.3756 157.856C48.9158 156.728 49.6883 155.852 50.6944 155.229C51.7091 154.605 52.9056 154.293 54.2835 154.293C55.9785 154.293 57.3847 154.793 58.502 155.793C59.6285 156.792 60.2289 158.089 60.3039 159.685H57.8591C57.7847 158.722 57.4123 157.933 56.7418 157.319C56.0812 156.696 55.2613 156.384 54.2835 156.384C52.9708 156.384 51.9512 156.851 51.2248 157.787C50.5082 158.713 50.1492 160.056 50.1492 161.817V162.298C50.1492 164.013 50.5082 165.333 51.2248 166.259C51.942 167.186 52.9665 167.649 54.2976 167.649ZM66.7145 150.965V154.568H69.536V156.535H66.7145V165.764C66.7145 166.36 66.8405 166.809 67.0919 167.112C67.3433 167.405 67.7716 167.552 68.377 167.552C68.6744 167.552 69.0843 167.497 69.6054 167.387V169.45C68.9257 169.634 68.2651 169.726 67.6222 169.726C66.4681 169.726 65.5972 169.381 65.0103 168.694C64.424 168.006 64.1309 167.03 64.1309 165.764V156.535H61.3787V154.568H64.1309V150.965H66.7145ZM95.6966 169.45H93.0004L82.7629 154.018V169.45H80.0674V149.424H82.7629L93.0288 164.925V149.424H95.6966V169.45ZM109.384 169.45C109.235 169.157 109.114 168.635 109.021 167.882C107.82 169.111 106.386 169.726 104.719 169.726C103.229 169.726 102.005 169.313 101.046 168.488C100.096 167.653 99.6213 166.599 99.6213 165.324C99.6213 163.775 100.217 162.573 101.409 161.721C102.61 160.858 104.296 160.427 106.465 160.427H108.979V159.259C108.979 158.369 108.709 157.663 108.169 157.14C107.629 156.608 106.833 156.343 105.781 156.343C104.859 156.343 104.086 156.571 103.462 157.03C102.839 157.488 102.526 158.043 102.526 158.695H99.9286C99.9286 157.952 100.194 157.237 100.724 156.548C101.265 155.852 101.991 155.302 102.904 154.898C103.826 154.495 104.835 154.293 105.934 154.293C107.675 154.293 109.04 154.724 110.027 155.586C111.014 156.439 111.526 157.617 111.563 159.121V165.97C111.563 167.337 111.74 168.423 112.094 169.23V169.45H109.384ZM105.097 167.511C105.907 167.511 106.675 167.305 107.401 166.892C108.127 166.479 108.653 165.943 108.979 165.283V162.23H106.954C103.788 162.23 102.205 163.142 102.205 164.966C102.205 165.764 102.475 166.388 103.015 166.837C103.555 167.286 104.249 167.511 105.097 167.511ZM119.119 150.965V154.568H121.941V156.535H119.119V165.764C119.119 166.36 119.245 166.809 119.497 167.112C119.748 167.405 120.176 167.552 120.782 167.552C121.079 167.552 121.489 167.497 122.011 167.387V169.45C121.33 169.634 120.67 169.726 120.027 169.726C118.873 169.726 118.002 169.381 117.415 168.694C116.829 168.006 116.536 167.03 116.536 165.764V156.535H113.784V154.568H116.536V150.965H119.119ZM127.779 169.45H125.195V154.568H127.779V169.45ZM124.985 150.62C124.985 150.208 125.111 149.86 125.363 149.575C125.623 149.291 126.005 149.149 126.508 149.149C127.011 149.149 127.393 149.291 127.653 149.575C127.914 149.86 128.044 150.208 128.044 150.62C128.044 151.033 127.914 151.377 127.653 151.652C127.393 151.927 127.011 152.065 126.508 152.065C126.005 152.065 125.623 151.927 125.363 151.652C125.111 151.377 124.985 151.033 124.985 150.62ZM136.914 165.998L140.656 154.568H143.297L137.877 169.45H135.908L130.433 154.568H133.073L136.914 165.998ZM151.858 169.726C149.81 169.726 148.143 169.066 146.858 167.745C145.573 166.415 144.931 164.641 144.931 162.422V161.954C144.931 160.478 145.215 159.162 145.783 158.007C146.36 156.842 147.16 155.934 148.185 155.284C149.219 154.623 150.336 154.293 151.537 154.293C153.502 154.293 155.029 154.93 156.119 156.205C157.207 157.479 157.753 159.304 157.753 161.679V162.738H147.514C147.552 164.206 147.985 165.393 148.814 166.301C149.651 167.199 150.713 167.649 151.998 167.649C152.91 167.649 153.684 167.465 154.317 167.099C154.95 166.732 155.504 166.246 155.979 165.641L157.557 166.851C156.291 168.767 154.391 169.726 151.858 169.726ZM151.537 156.384C150.495 156.384 149.619 156.76 148.911 157.511C148.203 158.255 147.766 159.3 147.599 160.648H155.168V160.455C155.094 159.162 154.74 158.163 154.107 157.456C153.474 156.742 152.617 156.384 151.537 156.384Z" fill="#61DAFB"/>
</g>
</svg>
