<svg width="273" height="68" viewBox="0 0 273 68" fill="none" xmlns="http://www.w3.org/2000/svg">
<g id="TypeScript">
<path id="typeScript" d="M34.0783 7.28208H20.1103V50.7506H14.4141V7.28208H0.505524V2.1229H34.0783V7.28208ZM56.1151 16.03L40.2203 56.3055C37.3895 63.4905 33.4096 67.0892 28.2707 67.0892C26.8343 67.0892 25.6306 66.9449 24.6623 66.6462V61.6588C25.8511 62.0644 26.9457 62.266 27.9314 62.266C30.725 62.266 32.8177 60.5986 34.2071 57.2512L36.971 50.6734L23.4735 16.03H29.6155L38.9647 42.7468C39.0811 43.0852 39.3114 43.9712 39.6754 45.3898H39.8736L40.5423 42.8139L50.3595 16.03H56.1151ZM65.1646 45.7357H65.0309V66.7234H59.4932V16.0275H65.0309V22.1324H65.1646C67.8889 17.5233 71.8638 15.2137 77.1142 15.2137C81.5672 15.2137 85.0394 16.7667 87.5407 19.8727C90.0421 22.9786 91.2804 27.1448 91.2804 32.3712C91.2804 38.1774 89.8786 42.8364 87.0702 46.3281C84.2617 49.8198 80.4081 51.5644 75.5342 51.5644C71.0763 51.5544 67.5966 49.6157 65.1696 45.7283L65.1646 45.7357ZM65.0309 31.7291V36.5821C65.0309 39.4566 65.9621 41.8832 67.8146 43.8941C69.6671 45.905 72.0248 46.893 74.8878 46.893C78.2361 46.893 80.8663 45.5989 82.7683 43.0255C84.6703 40.4521 85.6164 36.8634 85.6164 32.2816C85.6164 28.4141 84.7248 25.3877 82.9491 23.1976C81.1734 21.0075 78.7389 19.9125 75.7323 19.9125C72.5177 19.9125 69.9247 21.0399 67.9681 23.2872C66.0116 25.5346 65.0309 28.3369 65.0309 31.7291ZM124.853 34.7778H100.459C100.545 38.6453 101.581 41.6218 103.559 43.7273C105.538 45.8328 108.265 46.8806 111.727 46.8806C115.615 46.8806 119.194 45.5864 122.458 43.0131V48.232C119.424 50.4469 115.405 51.5594 110.412 51.5594C105.526 51.5594 101.694 49.9865 98.9034 46.8308C96.1122 43.6751 94.6931 39.2401 94.6931 33.521C94.6931 28.1204 96.2187 23.7153 99.2625 20.3181C102.306 16.921 106.098 15.2162 110.618 15.2162C115.137 15.2162 118.632 16.6846 121.109 19.6213C123.585 22.558 124.823 26.6396 124.823 31.861V34.7728L124.853 34.7778ZM119.157 30.0616C119.137 26.8262 118.36 24.3524 116.844 22.5705C115.328 20.7885 113.216 19.8901 110.519 19.8901C107.908 19.8901 105.689 20.8259 103.866 22.7073C102.044 24.5888 100.895 27.0378 100.488 30.0666L119.157 30.0616ZM129.668 48.782V42.0698C130.369 42.7418 131.203 43.364 132.181 43.9015C133.16 44.4391 134.163 44.9045 135.272 45.2703C136.382 45.6362 137.442 45.9348 138.527 46.1414C139.611 46.348 140.632 46.45 141.548 46.45C144.735 46.45 147.125 45.8029 148.698 44.5013C150.271 43.1997 151.058 41.3282 151.058 38.8892C151.058 37.5776 150.798 36.4403 150.271 35.4647C149.713 34.45 148.974 33.5473 148.091 32.8017C147.16 32.0003 146.065 31.2288 144.797 30.4971L140.711 28.1726L136.392 25.5595C135.117 24.7344 133.947 23.7566 132.907 22.6476C131.916 21.5874 131.141 20.3829 130.574 19.0389C130.007 17.695 129.732 16.1171 129.732 14.3103C129.732 12.0953 130.173 10.1715 131.057 8.53641C131.941 6.9013 133.1 5.54991 134.549 4.48473C135.998 3.41954 137.63 2.6331 139.473 2.11295C141.306 1.59355 143.202 1.33058 145.107 1.33148C149.473 1.33148 152.651 1.91136 154.647 3.05867V9.46222C152.036 7.4762 148.703 6.48319 144.579 6.48319C143.448 6.48319 142.313 6.61758 141.181 6.86895C140.05 7.12031 139.042 7.55335 138.16 8.14319C137.278 8.73302 136.558 9.48711 136 10.4204C135.443 11.3537 135.166 12.4736 135.166 13.815C135.166 15.0594 135.376 16.1296 135.8 17.0355C136.223 17.9414 136.845 18.7627 137.672 19.5143C138.499 20.2659 139.495 20.9826 140.686 21.6845L144.772 23.9891L149.28 26.7018C150.701 27.6475 151.947 28.6978 153.015 29.855C154.082 31.0123 154.934 32.2865 155.558 33.6877C156.182 35.0889 156.499 36.6991 156.499 38.5009C156.499 40.8901 156.068 42.9309 155.224 44.5859C154.412 46.1954 153.227 47.585 151.769 48.6376C150.32 49.6829 148.648 50.4295 146.749 50.8949C144.849 51.3603 142.861 51.5918 140.76 51.5918C140.06 51.5918 139.195 51.5345 138.17 51.4076L135.025 50.8675C133.95 50.6261 132.944 50.3374 131.983 49.989C131.017 49.6157 130.255 49.2424 129.67 48.7944L129.668 48.782ZM185.961 49.1553C183.303 50.7556 180.153 51.5694 176.518 51.5694C171.594 51.5694 167.612 49.9592 164.588 46.7362C161.564 43.5133 160.048 39.3397 160.048 34.2079C160.048 28.4887 161.683 23.897 164.942 20.4252C168.201 16.9534 172.553 15.2162 178.004 15.2162C181.037 15.2162 183.715 15.7886 186.038 16.9135V22.6377C183.474 20.8209 180.73 19.9249 177.803 19.9249C174.271 19.9249 171.374 21.1992 169.117 23.7452C166.861 26.2911 165.73 29.6286 165.73 33.7649C165.73 37.834 166.794 41.0469 168.917 43.3913C171.039 45.7357 173.895 46.9204 177.469 46.9204C180.483 46.9204 183.313 45.9174 185.973 43.9015V49.1777L185.961 49.1553ZM207.374 21.6496C206.408 20.908 205.013 20.5297 203.163 20.5297C200.803 20.5297 198.824 21.6496 197.244 23.8895C195.664 26.1294 194.867 29.1756 194.867 33.0431V50.7381H189.329V16.0201H194.867V23.1777H195C195.788 20.7387 196.987 18.8274 198.609 17.4685C200.231 16.1097 202.034 15.4153 204.04 15.4153C205.476 15.4153 206.584 15.5696 207.351 15.9131L207.374 21.6496ZM213.726 7.21488C212.735 7.21488 211.893 6.87642 211.192 6.20196C210.492 5.52751 210.147 4.6689 210.147 3.62611C210.147 2.58332 210.494 1.72719 211.192 1.03283C211.891 0.338472 212.738 0 213.726 0C214.734 0 215.598 0.348427 216.307 1.03283C216.655 1.36638 216.929 1.76947 217.112 2.21612C217.296 2.66277 217.384 3.14308 217.372 3.62611C217.372 4.62161 217.017 5.46778 216.307 6.1721C215.596 6.8565 214.732 7.21737 213.726 7.21737V7.21488ZM216.426 50.7506H210.888V16.0325H216.426V50.7506ZM225.351 45.7357H225.217V66.7234H219.68V16.0275H225.217V22.1324H225.351C228.075 17.5233 232.05 15.2137 237.301 15.2137C241.754 15.2137 245.226 16.7667 247.727 19.8727C250.229 22.9786 251.467 27.1448 251.467 32.3712C251.467 38.1774 250.065 42.8364 247.257 46.3281C244.448 49.8198 240.57 51.5644 235.721 51.5644C231.263 51.5544 227.783 49.6157 225.356 45.7283L225.351 45.7357ZM225.217 31.7316V36.5846C225.217 39.4591 226.149 41.8857 228.001 43.8966C229.854 45.9075 232.211 46.8955 235.074 46.8955C238.423 46.8955 241.053 45.6014 242.955 43.028C244.857 40.4546 245.803 36.8658 245.803 32.2841C245.803 28.4165 244.911 25.3902 243.136 23.2001C241.36 21.01 238.925 19.915 235.919 19.915C232.704 19.915 230.111 21.0424 228.155 23.2897C226.198 25.5371 225.217 28.3419 225.217 31.739V31.7316ZM272.189 50.4146C270.883 51.1363 269.167 51.4947 267.025 51.4947C260.982 51.4947 257.946 48.1001 257.946 41.3207V20.7786H252.002V16.0325H257.946V7.55584L263.483 5.76394V16.035H272.189V20.7811H263.483V40.3426C263.483 42.6671 263.88 44.3346 264.665 45.3301C265.45 46.3256 266.757 46.8233 268.578 46.8233C269.97 46.8233 271.178 46.4376 272.186 45.6661L272.189 50.4146Z" fill="#007ACC"/>
</g>
</svg>
