<svg width="174" height="193" viewBox="0 0 174 193" fill="none" xmlns="http://www.w3.org/2000/svg">
<g id="VsCode">
<path id="bracos" d="M2.55699 67.7368C2.55699 67.7368 -1.65883 64.3236 3.40016 59.7661L15.1869 47.9285C15.1869 47.9285 18.5596 43.9432 22.1254 47.4155L130.894 139.907V184.259C130.894 184.259 130.841 191.223 122.884 190.454L2.55699 67.7368Z" fill="#2489CA"/>
<path id="pernas" d="M30.5923 96.3248L2.55703 124.952C2.55703 124.952 -0.323779 127.359 2.55703 131.66L15.5734 144.958C15.5734 144.958 18.665 148.687 23.2321 144.445L52.9537 119.132L30.5923 96.3248Z" fill="#1070B3"/>
<path id="costas" d="M79.812 96.5615L131.227 52.4663L130.894 8.3514C130.894 8.3514 128.698 -1.27654 121.373 3.73473L52.9537 73.6754L79.812 96.5615Z" fill="#0877B9"/>
<path id="Frente" d="M122.884 190.513C125.87 193.946 129.488 192.821 129.488 192.821L169.556 170.645C174.686 166.719 173.965 161.846 173.965 161.846V29.4224C173.965 23.6022 168.66 21.5898 168.66 21.5898L133.933 2.78769C126.344 -2.48005 121.373 3.7347 121.373 3.7347C121.373 3.7347 127.767 -1.4344 130.894 8.35138V183.45C130.894 184.653 130.665 185.837 130.209 186.902C129.295 188.974 127.31 190.907 122.55 190.098L122.884 190.513Z" fill="#3C99D4"/>
</g>
</svg>
